<svg xmlns="http://www.w3.org/2000/svg" width="19.216" height="13.742" viewBox="0 0 19.216 13.742">
  <g id="Group_178" data-name="Group 178" transform="translate(-613.94 -168.388)">
    <path id="Path_168" data-name="Path 168" d="M617.562,182.13l5.986-.032,5.985.032.465-1.942H617.1Z" fill="#111820"/>
    <path id="Path_169" data-name="Path 169" d="M631.942,170.816a1.214,1.214,0,0,0-.818,2.111,6.663,6.663,0,0,1-2.948,1.964,2.162,2.162,0,0,1-.768.068,3.246,3.246,0,0,1-2.205-1.8,15.907,15.907,0,0,1-1.216-2.423,1.214,1.214,0,1,0-.878,0,16,16,0,0,1-1.216,2.423,3.246,3.246,0,0,1-2.205,1.8,2.162,2.162,0,0,1-.768-.068,6.663,6.663,0,0,1-2.948-1.964,1.214,1.214,0,1,0-.818.317,1.183,1.183,0,0,0,.275-.032l1.436,6H630.23c.479-2,1.09-4.553,1.437-6a1.183,1.183,0,0,0,.275.032,1.214,1.214,0,0,0,0-2.428Z" fill="#111820"/>
  </g>
</svg>
