<svg xmlns="http://www.w3.org/2000/svg" width="19.009" height="19.009" viewBox="0 0 19.009 19.009">
  <g id="Group_165" data-name="Group 165" transform="translate(-705.013 -37.667)">
    <path id="Path_141" data-name="Path 141" d="M719.885,54.122A8.711,8.711,0,1,1,718.527,40.7l-1.261,1.261a6.969,6.969,0,1,0,2.464,2.464l1.261-1.261A8.712,8.712,0,0,1,719.885,54.122Z" fill="#ee4a80"/>
    <path id="Path_142" data-name="Path 142" d="M717.422,51.658a5.227,5.227,0,1,1-1.446-8.41L714.628,44.6a3.484,3.484,0,1,0,2.464,2.464l1.348-1.349A5.217,5.217,0,0,1,717.422,51.658Z" fill="#ee4a80"/>
    <path id="Path_143" data-name="Path 143" d="M718.15,42.581l-1.239,1.239-1.248,1.248-1.282,1.281h0a1.742,1.742,0,1,0,.959.959h0l1.281-1.282,1.248-1.248,1.239-1.239,1.237-1.237.194-.194,1.31.066L724.022,40l-2.22-.111-.111-2.22-2.176,2.173.066,1.31-.2.194Z" fill="#ee4a80"/>
  </g>
</svg>
