<svg xmlns="http://www.w3.org/2000/svg" width="9.137" height="16.377" viewBox="0 0 9.137 16.377">
  <g id="Group_169" data-name="Group 169" transform="translate(-775.189 -39.801)">
    <g id="Group_168" data-name="Group 168">
      <g id="Group_167" data-name="Group 167">
        <g id="Group_166" data-name="Group 166">
          <path id="Path_144" data-name="Path 144" d="M784.143,51.628c-.035.1-.074.189-.117.281a3.353,3.353,0,0,1-.226.4c-.029.043-.058.085-.088.127-.061.084-.127.166-.2.245a3.749,3.749,0,0,1-.339.34c-.041.036-.082.072-.125.106-.085.07-.173.136-.266.2s-.188.126-.288.184a5.086,5.086,0,0,1-.723.347,5.662,5.662,0,0,1-.819.247.357.357,0,0,0-.063.02.318.318,0,0,0-.052.027.149.149,0,0,0-.08.107v.908a1.074,1.074,0,0,1-1.125,1.011h-.022a1.073,1.073,0,0,1-1.124-1.011v-.774a.074.074,0,0,0-.005-.025.169.169,0,0,0-.064-.075.382.382,0,0,0-.178-.061c-.109-.009-.217-.021-.325-.035-.216-.027-.43-.061-.64-.1a7.635,7.635,0,0,1-1.449-.429,1.077,1.077,0,0,1-.271-.16.82.82,0,0,1-.076-.068.977.977,0,0,1-.181-.24c-.016-.03-.03-.061-.043-.092a.914.914,0,0,1-.03-.088.924.924,0,0,1-.039-.271c0-.03,0-.06.006-.091s.008-.06.014-.09a.954.954,0,0,1,.056-.177l.069-.16h0a.9.9,0,0,1,.067-.127l.02-.03a.93.93,0,0,1,.085-.111v0a1.054,1.054,0,0,1,.1-.1l.028-.023a1.01,1.01,0,0,1,.114-.08l0,0a1.21,1.21,0,0,1,.129-.066l.033-.014a1.163,1.163,0,0,1,.133-.046l.006,0a1.147,1.147,0,0,1,.144-.029l.037,0a1.336,1.336,0,0,1,.141-.01h.009c.021,0,.041,0,.061,0l.053,0,.063.009.051.007.07.017.043.01c.033.01.065.021.1.033l.015,0a6.578,6.578,0,0,0,2.413.462,2.95,2.95,0,0,0,1.737-.472,1.524,1.524,0,0,0,.159-.135,1.232,1.232,0,0,0,.27-.377,1.077,1.077,0,0,0,.095-.445v-.05c0-.034,0-.068-.007-.1a1.182,1.182,0,0,0-.03-.158c-.01-.035-.021-.071-.035-.108a1.175,1.175,0,0,0-.05-.11c-.01-.018-.02-.037-.032-.055a1.071,1.071,0,0,0-.076-.113c-.029-.038-.061-.077-.1-.115s-.076-.078-.119-.117-.091-.078-.143-.118-.109-.079-.17-.12c-.092-.06-.194-.121-.309-.182-.038-.02-.078-.041-.119-.061-.081-.041-.169-.082-.262-.124-.046-.021-.094-.041-.144-.062q-.148-.063-.315-.126l-.173-.063-.181-.063c-.448-.147-.888-.305-1.3-.483-.25-.106-.49-.22-.718-.343-.111-.06-.218-.122-.322-.186s-.205-.131-.3-.2-.189-.141-.278-.215-.173-.152-.253-.232-.154-.164-.224-.251a2.955,2.955,0,0,1-.194-.27,2.641,2.641,0,0,1-.339-.808,2.948,2.948,0,0,1-.079-.686c0-1.628,1.231-2.918,3.213-3.365a.27.27,0,0,0,.043-.012.307.307,0,0,0,.1-.055l.022-.021a.12.12,0,0,0,.026-.044.052.052,0,0,0,0-.021v-.851a.912.912,0,0,1,.05-.3.938.938,0,0,1,.086-.181,1.141,1.141,0,0,1,.919-.527l.069,0a1.148,1.148,0,0,1,.988.53.933.933,0,0,1,.085.181.913.913,0,0,1,.051.3v.7h0a.111.111,0,0,0,.037.075.316.316,0,0,0,.194.084,8.239,8.239,0,0,1,.948.145,6.777,6.777,0,0,1,.871.248,1.141,1.141,0,0,1,.384.229,1.052,1.052,0,0,1,.144.162,1.063,1.063,0,0,1,.058.09c.017.032.033.064.047.1a.923.923,0,0,1-.009.745l-.067.147a.822.822,0,0,1-.069.123l-.018.029a1.013,1.013,0,0,1-.087.109l-.006.006a1.03,1.03,0,0,1-.1.09l-.026.021a1.3,1.3,0,0,1-.115.079l-.013.007a1.143,1.143,0,0,1-.116.058l-.031.013a1.073,1.073,0,0,1-.135.046l-.02.005a1.082,1.082,0,0,1-.126.025l-.033.005a1.181,1.181,0,0,1-.146.01l-.058,0-.047,0-.064-.007-.044-.006-.072-.015-.036-.008a1.018,1.018,0,0,1-.107-.033A6.037,6.037,0,0,0,780,43.752c-.123,0-.237.006-.346.015-1.188.1-1.622.679-1.622,1.187q0,.039,0,.075c.025.366.24.655.775.958.06.035.124.069.193.1.1.052.215.1.337.158s.254.108.4.165l.3.114c.158.059.326.119.507.182.117.04.234.081.351.124s.233.087.348.132l.173.071c.172.071.342.147.508.228.055.026.11.054.165.082.108.056.215.114.319.175.052.031.1.062.155.094.1.063.2.13.3.2a3.242,3.242,0,0,1,1.468,2.757A3.111,3.111,0,0,1,784.143,51.628Z" fill="#ffc46e"/>
        </g>
      </g>
    </g>
  </g>
</svg>
