<svg xmlns="http://www.w3.org/2000/svg" width="13.205" height="12.573" viewBox="0 0 13.205 12.573">
  <g id="Group_171" data-name="Group 171" transform="translate(-723.13 -382.028)">
    <g id="Group_170" data-name="Group 170">
      <path id="Path_145" data-name="Path 145" d="M736.069,383.526a1.51,1.51,0,0,0-.868-.6,2.334,2.334,0,0,0-.541-.043h-.88a.434.434,0,1,0,0,.868h.584c.184,0,.376-.014.56,0l-.048-.008.115.016-.067-.008a1.14,1.14,0,0,1,.115.029c.026.008.052.019.078.027l-.023-.007.012.006c.041.021.078.046.116.07l0,0c-.083-.071.069.046.008.006l-.006,0c.02.017.039.035.057.053s.036.038.053.057l0-.005c-.04-.061.076.09.005.008l0,0c.025.038.05.076.071.116l.006.015-.008-.025c.008.026.02.051.028.078a.981.981,0,0,1,.033.142v-.018l0-.046,0,.046.005.039,0-.02c.006.086.005.173.005.259v1.888H724V385.4c0-.343-.006-.685,0-1.027,0-.035,0-.07,0-.105,0,.021-.008.042-.011.063.005-.039.011-.077.016-.116,0,.018,0,.036-.005.053a.87.87,0,0,1,.026-.1c.008-.027.019-.052.027-.078l-.007.023.006-.013c.021-.04.045-.078.07-.116l0,0c-.071.082.045-.069.005-.008l0,.005c.017-.019.034-.038.053-.057s.037-.036.056-.052l-.005,0c-.061.039.091-.077.008-.006l0,0c.039-.025.076-.05.117-.071l.014-.006-.025.007c.026-.008.052-.019.078-.027a.9.9,0,0,1,.111-.028l-.063.007.115-.016-.052.009c.173-.016.353,0,.525,0h.546a.434.434,0,0,0,0-.868h-.9a1.733,1.733,0,0,0-.711.141,1.439,1.439,0,0,0-.7.679,1.574,1.574,0,0,0-.155.675c0,.032,0,.064,0,.1v8.4c0,.078,0,.157,0,.235a1.5,1.5,0,0,0,1.137,1.448,4.421,4.421,0,0,0,.949.041h9.527a1.763,1.763,0,0,0,.727-.142,1.5,1.5,0,0,0,.862-1.353q0-.465,0-.93v-7.733A1.539,1.539,0,0,0,736.069,383.526Zm-.6,8.547q0,.513,0,1.027c0,.026,0,.052,0,.077l.006-.035c-.005.031-.008.063-.012.1l.006-.06a.961.961,0,0,1-.032.128c-.008.026-.02.052-.027.078l.008-.026-.007.015c-.022.041-.046.078-.071.117l0,0c.071-.083-.045.069-.005.008l0,0c-.017.019-.034.038-.053.056a.715.715,0,0,1-.057.053l.006,0c.061-.04-.091.076-.008.005l0,0a1.05,1.05,0,0,1-.116.07l-.012.006.023-.007c-.026.008-.052.02-.078.028a.933.933,0,0,1-.116.028c.023,0,.045,0,.068-.006l-.115.015.047-.009c-.108.009-.218.005-.325.005h-8.767c-.4,0-.8,0-1.208,0-.031,0-.062,0-.094,0l.05.009-.115-.016.065.007a.888.888,0,0,1-.113-.028c-.026-.008-.052-.02-.078-.028l.025.008-.014-.007a1.233,1.233,0,0,1-.116-.07l0,0c.083.071-.069-.045-.008-.005l.006,0a1.079,1.079,0,0,1-.11-.11l0,.006c.04.061-.076-.091-.005-.008l0,0a1.239,1.239,0,0,1-.07-.116l-.007-.014.008.025c-.008-.026-.02-.052-.028-.078s-.016-.055-.022-.083l0,.035c-.005-.039-.014-.077-.019-.115,0,.026.009.053.015.08-.01-.106,0-.213,0-.319v-5.575h11.466Z" fill="#fff"/>
      <path id="Path_146" data-name="Path 146" d="M728.232,383.937h3.037a.428.428,0,1,0,0-.856h-3.037a.428.428,0,1,0,0,.856Z" fill="#fff"/>
      <path id="Path_147" data-name="Path 147" d="M727.612,385.159h-1.394a.434.434,0,1,1,0-.868h.277v-1.829a.434.434,0,1,1,.868,0v1.829h.249a.434.434,0,1,1,0,.868Z" fill="#fff"/>
      <path id="Path_148" data-name="Path 148" d="M733.191,385.159H731.8a.434.434,0,1,1,0-.868h.278v-1.806a.434.434,0,0,1,.868,0v1.806h.249a.434.434,0,1,1,0,.868Z" fill="#fff"/>
      <path id="Path_149" data-name="Path 149" d="M725.691,389.932h.9a.429.429,0,1,0,0-.857h-.9a.429.429,0,1,0,0,.857Z" fill="#fff"/>
      <path id="Path_150" data-name="Path 150" d="M729.239,389.932h.9a.429.429,0,1,0,0-.857h-.9a.429.429,0,1,0,0,.857Z" fill="#fff"/>
      <path id="Path_151" data-name="Path 151" d="M732.788,389.932h.9a.429.429,0,1,0,0-.857h-.9a.429.429,0,1,0,0,.857Z" fill="#fff"/>
      <path id="Path_152" data-name="Path 152" d="M725.691,392.287h.9c.227,0,.444-.087.434-.321s-.191-.321-.434-.321h-.9c-.227,0-.444.087-.434.321s.191.321.434.321Z" fill="#fff"/>
      <path id="Path_153" data-name="Path 153" d="M729.239,392.287h.9c.227,0,.445-.087.434-.321s-.191-.321-.434-.321h-.9c-.227,0-.444.087-.433.321s.19.321.433.321Z" fill="#fff"/>
    </g>
  </g>
</svg>
