<svg xmlns="http://www.w3.org/2000/svg" width="18.897" height="20.527" viewBox="0 0 18.897 20.527">
  <g id="Group_12" data-name="Group 12" transform="translate(-406.551 -2666.449)">
    <g id="Group_11" data-name="Group 11">
      <g id="Group_10" data-name="Group 10">
        <path id="Path_7" data-name="Path 7" d="M418.991,2682.339a.411.411,0,0,0-.823,0,2.171,2.171,0,0,1-2.168,2.169.411.411,0,1,0,0,.822A3,3,0,0,0,418.991,2682.339Z" fill="#71dad3"/>
      </g>
      <path id="Path_8" data-name="Path 8" d="M412.355,2679.483h0l0,0Z" fill="#71dad3"/>
      <path id="Path_9" data-name="Path 9" d="M425.393,2670.76l-2.372-4.106a.41.41,0,0,0-.356-.205H409.333a.413.413,0,0,0-.356.205l-2.371,4.106a.415.415,0,0,0,0,.412l5.252,9.095a4.637,4.637,0,1,0,8.283,0l5.252-9.094A.415.415,0,0,0,425.393,2670.76Zm-2.018-1.848-5.349,9.264a4.584,4.584,0,0,0-1.191-.394l5.83-10.1Zm-3.793,2.465L416,2677.582l-3.582-6.205Zm-7.64-.823-.71-1.23h9.535l-.71,1.23Zm10.01-3.283-.71,1.231H410.756l-.71-1.231Zm-12.619.412,5.832,10.1h0a4.6,4.6,0,0,0-1.2.4h0l-5.348-9.263Zm-1.9,3.283.711-1.23,5.119,8.866a4.7,4.7,0,0,0-.912.881h0l0,0,0,0ZM416,2686.153a3.814,3.814,0,1,1,3.813-3.814A3.818,3.818,0,0,1,416,2686.153Zm3.643-6.671a4.615,4.615,0,0,0-.912-.881h0l5.119-8.867.711,1.232Z" fill="#71dad3"/>
    </g>
  </g>
</svg>
