<svg xmlns="http://www.w3.org/2000/svg" width="18.007" height="19.631" viewBox="0 0 18.007 19.631">
  <g id="Group_88" data-name="Group 88" transform="translate(-406.996 -2828.956)">
    <g id="Group_87" data-name="Group 87">
      <path id="Path_59" data-name="Path 59" d="M420.276,2831.411h-8.554l.945,1.635h6.665Z" fill="#71dad3"/>
      <path id="Path_60" data-name="Path 60" d="M421.693,2828.956H410.3l.944,1.635h9.5Z" fill="#71dad3"/>
      <g id="Group_86" data-name="Group 86">
        <path id="Path_61" data-name="Path 61" d="M413.071,2840.3l-5.131-8.887-.944,1.635,4.883,8.457A5.037,5.037,0,0,1,413.071,2840.3Z" fill="#71dad3"/>
        <path id="Path_62" data-name="Path 62" d="M425,2833.047l-.945-1.637-5.131,8.887a5.072,5.072,0,0,1,1.193,1.206Z" fill="#71dad3"/>
      </g>
      <path id="Path_63" data-name="Path 63" d="M422.64,2828.956l-6.024,10.435a4.972,4.972,0,0,1,1.608.484l5.36-9.286Z" fill="#71dad3"/>
      <path id="Path_64" data-name="Path 64" d="M409.358,2828.956l-.942,1.629,5.357,9.29a4.976,4.976,0,0,1,1.61-.484Z" fill="#71dad3"/>
      <path id="Path_65" data-name="Path 65" d="M416,2840.169a4.209,4.209,0,1,0,4.209,4.209A4.21,4.21,0,0,0,416,2840.169Zm0,7.189a.41.41,0,1,1,0-.82,2.162,2.162,0,0,0,2.159-2.16.411.411,0,0,1,.821,0A2.984,2.984,0,0,1,416,2847.358Z" fill="#71dad3"/>
    </g>
  </g>
</svg>
