<svg xmlns="http://www.w3.org/2000/svg" width="19.512" height="14.656" viewBox="0 0 19.512 14.656">
  <g id="Group_8" data-name="Group 8" transform="translate(-327.604 -2669.384)">
    <g id="Group_2" data-name="Group 2">
      <path id="Path_1" data-name="Path 1" d="M346.116,2684.04H334.86a1,1,0,0,1,0-2h11.256a1,1,0,0,1,0,2Z" fill="#71dad3"/>
    </g>
    <g id="Group_3" data-name="Group 3">
      <path id="Path_2" data-name="Path 2" d="M346.116,2677.712H334.86a1,1,0,0,1,0-2h11.256a1,1,0,0,1,0,2Z" fill="#71dad3"/>
    </g>
    <g id="Group_4" data-name="Group 4">
      <path id="Path_3" data-name="Path 3" d="M346.116,2671.384H334.86a1,1,0,0,1,0-2h11.256a1,1,0,0,1,0,2Z" fill="#71dad3"/>
    </g>
    <g id="Group_5" data-name="Group 5">
      <path id="Path_4" data-name="Path 4" d="M330.36,2684.04H328.6a1,1,0,0,1,0-2h1.756a1,1,0,0,1,0,2Z" fill="#71dad3"/>
    </g>
    <g id="Group_6" data-name="Group 6">
      <path id="Path_5" data-name="Path 5" d="M330.36,2677.712H328.6a1,1,0,0,1,0-2h1.756a1,1,0,0,1,0,2Z" fill="#71dad3"/>
    </g>
    <g id="Group_7" data-name="Group 7">
      <path id="Path_6" data-name="Path 6" d="M330.36,2671.384H328.6a1,1,0,0,1,0-2h1.756a1,1,0,0,1,0,2Z" fill="#71dad3"/>
    </g>
  </g>
</svg>
