<svg xmlns="http://www.w3.org/2000/svg" width="20.514" height="18.316" viewBox="0 0 20.514 18.316">
  <g id="Group_18" data-name="Group 18" transform="translate(-484.384 -2667.554)">
    <g id="Group_15" data-name="Group 15">
      <path id="Path_11" data-name="Path 11" d="M503.735,2685.87h-3.382a1.164,1.164,0,0,1-1.163-1.164v-15.988a1.164,1.164,0,0,1,1.163-1.164h3.382a1.165,1.165,0,0,1,1.163,1.164v15.988A1.165,1.165,0,0,1,503.735,2685.87Zm-3.382-17.116.036,15.952,3.346-.036-.036-15.916Z" fill="#71dad3"/>
    </g>
    <g id="Group_16" data-name="Group 16">
      <path id="Path_12" data-name="Path 12" d="M488.929,2685.87h-3.382a1.165,1.165,0,0,1-1.163-1.164v-10.917a1.165,1.165,0,0,1,1.163-1.163h3.382a1.164,1.164,0,0,1,1.163,1.163v10.917A1.164,1.164,0,0,1,488.929,2685.87Zm-3.382-12.044.036,10.88,3.346-.036-.036-10.844Z" fill="#71dad3"/>
    </g>
    <g id="Group_17" data-name="Group 17">
      <path id="Path_13" data-name="Path 13" d="M496.331,2685.87H492.95a1.165,1.165,0,0,1-1.163-1.164v-8.662a1.165,1.165,0,0,1,1.163-1.164h3.381a1.164,1.164,0,0,1,1.163,1.164v8.662A1.164,1.164,0,0,1,496.331,2685.87Zm-3.381-9.79.037,8.626,3.344-.036-.036-8.59Z" fill="#71dad3"/>
    </g>
  </g>
</svg>
