<svg xmlns="http://www.w3.org/2000/svg" width="47.078" height="47.078" viewBox="0 0 47.078 47.078">
  <path id="Path_68" data-name="Path 68" d="M641.611,2073.266a23.539,23.539,0,0,0-40.15,16.726q0,.993.087,1.971l-.009.012.01.007a23.308,23.308,0,0,0,4.768,12.285l-.01.045.053.011a23.9,23.9,0,0,0,2.029,2.3,23.383,23.383,0,0,0,16.659,6.861,23.642,23.642,0,0,0,6.68-.972l.061.038.041-.068a23.407,23.407,0,0,0,9.848-5.926,23.874,23.874,0,0,0,2.291-2.665l.173-.037-.033-.157a23.548,23.548,0,0,0-2.5-30.43Zm-33.85,4.458a21.249,21.249,0,0,1,9.511-7.455l6.486,2.476.013,6.384a.953.953,0,0,1-.392.772l-8.105,5.914a.951.951,0,0,1-.77.16l-5.892-1.317Zm0,24.437a21.027,21.027,0,0,1-3.728-9.537l4.064-5.622,5.655,1.265a.953.953,0,0,1,.7.634l3.018,9.225a.955.955,0,0,1-.111.823l-3.022,4.571Zm22.519,8.254a21.183,21.183,0,0,1-10.078.117l-3.758-5.848,2.778-4.2a.956.956,0,0,1,.794-.428l10.162-.02a.953.953,0,0,1,.783.407l2.883,4.119Zm12.256-8.676-6.74,1.422-3.056-4.366a.952.952,0,0,1-.126-.839l2.934-9.091a.952.952,0,0,1,.691-.635l5.624-1.311,4.1,5.739A21,21,0,0,1,642.534,2101.739Zm-1.179-17.167-5.862,1.366a.953.953,0,0,1-.776-.156l-8.151-5.9a.957.957,0,0,1-.395-.771l-.013-6.323,6.6-2.51a21.255,21.255,0,0,1,9.418,7.357Z" transform="translate(-601.461 -2066.405)" fill="#ffc46e"/>
</svg>
