<svg xmlns="http://www.w3.org/2000/svg" width="19.207" height="21.927" viewBox="0 0 19.207 21.927">
  <g id="Group_32" data-name="Group 32" transform="translate(-354.678 -15.235)" opacity="0.4">
    <path id="Path_19" data-name="Path 19" d="M357.036,37.162a2.363,2.363,0,0,1-2.358-2.358V23.823a2.364,2.364,0,0,1,2.17-2.35l9.883-6.238,1.806,3.127,1.348-.36.928,3.463h.714a2.363,2.363,0,0,1,2.358,2.358V34.8a2.364,2.364,0,0,1-2.358,2.358Zm0-14.471a1.135,1.135,0,0,0-1.132,1.132V34.8a1.135,1.135,0,0,0,1.132,1.131h14.491a1.135,1.135,0,0,0,1.132-1.131V32.129h-3.7a2.816,2.816,0,0,1,0-5.631h3.7V23.823a1.139,1.139,0,0,0-1.132-1.132Zm11.919,5.034a1.589,1.589,0,0,0,0,3.178h3.7V27.725Zm.589-6.26-.526-1.963-7.325,1.963Zm-8.768-1.024,6.537-1.751-1-1.739Z" fill="#71dad3"/>
    <path id="Path_20" data-name="Path 20" d="M369.423,28.835h0a.675.675,0,0,0-.955,0h0a.677.677,0,0,0,0,.957h0a.676.676,0,0,0,.956-.957Z" fill="#71dad3"/>
  </g>
</svg>
